<svg xmlns="http://www.w3.org/2000/svg" width="18.463" height="18.463" viewBox="0 0 18.463 18.463"><defs><style>.a{opacity:0.8;}.b{fill:#fff;stroke:#fff;stroke-width:0.6px;}</style></defs><g class="a" transform="translate(0.3 0.3)"><g transform="translate(6.496)"><path class="b" d="M196.738,0h-6.5a.812.812,0,0,0,0,1.624h4.535L186.42,9.981a.812.812,0,1,0,1.148,1.148l8.357-8.357V7.308a.812.812,0,1,0,1.624,0V.812A.812.812,0,0,0,196.738,0Z" transform="translate(-186.182)"/></g><g transform="translate(0 3.248)"><path class="b" d="M13.8,97.963a.812.812,0,0,0-.812.812v7.308H1.624V94.715H8.932a.812.812,0,1,0,0-1.624H.812A.812.812,0,0,0,0,93.9v12.991a.812.812,0,0,0,.812.812H13.8a.812.812,0,0,0,.812-.812v-8.12A.812.812,0,0,0,13.8,97.963Z" transform="translate(0 -93.091)"/></g></g></svg>