<svg xmlns="http://www.w3.org/2000/svg" width="12.336" height="12.336" viewBox="0 0 12.336 12.336"><defs><style>.a{fill:#fff;stroke:#fff;stroke-width:0.5px;}</style></defs><g transform="translate(0.25 0.25)"><path class="a" d="M8.57,0h-5.3A3.27,3.27,0,0,0,0,3.266v5.3a3.27,3.27,0,0,0,3.266,3.266h5.3A3.27,3.27,0,0,0,11.836,8.57v-5.3A3.27,3.27,0,0,0,8.57,0Zm2.216,8.57A2.219,2.219,0,0,1,8.57,10.786h-5.3A2.219,2.219,0,0,1,1.05,8.57v-5.3A2.219,2.219,0,0,1,3.266,1.05h5.3a2.219,2.219,0,0,1,2.216,2.216v5.3Z"/><path class="a" d="M44.018,40.97a3.05,3.05,0,1,0,3.05,3.05A3.053,3.053,0,0,0,44.018,40.97Zm0,5.049a2,2,0,1,1,2-2A2,2,0,0,1,44.018,46.019Z" transform="translate(-38.1 -38.102)"/><path class="a" d="M119.691,28.251a.77.77,0,1,0,.545.225A.773.773,0,0,0,119.691,28.251Z" transform="translate(-110.595 -26.273)"/></g></svg>