<svg xmlns="http://www.w3.org/2000/svg" width="24.471" height="24.68" viewBox="0 0 24.471 24.68"><defs><style>.a{fill:#fff;}</style></defs><g transform="translate(0)"><path class="a" d="M21.977,15.686a4.468,4.468,0,0,0-3.513,1.723L10.827,13.5A4.468,4.468,0,0,0,11,12.339a4.431,4.431,0,0,0-.2-1.261L18.4,7.19A4.477,4.477,0,1,0,17.483,4.5a4.448,4.448,0,0,0,.173,1.167L10.02,9.568a4.493,4.493,0,1,0,.066,5.463l7.6,3.888a4.442,4.442,0,0,0-.206,1.265,4.5,4.5,0,1,0,4.5-4.5Z" transform="translate(-2.006)"/></g></svg>