<svg xmlns="http://www.w3.org/2000/svg" width="17.619" height="17.77" viewBox="0 0 17.619 17.77"><defs><style>.a{fill:#fff;}</style></defs><g transform="translate(-2.006)"><g transform="translate(2.006)"><path class="a" d="M16.385,11.294a3.217,3.217,0,0,0-2.529,1.241l-5.5-2.812a3.217,3.217,0,0,0,.124-.838,3.19,3.19,0,0,0-.147-.908l5.475-2.8a3.224,3.224,0,1,0-.659-1.94,3.2,3.2,0,0,0,.125.84l-5.5,2.812a3.235,3.235,0,1,0,.048,3.933l5.472,2.8a3.2,3.2,0,0,0-.148.911,3.238,3.238,0,1,0,3.238-3.238Z" transform="translate(-2.006)"/></g></g></svg>