<svg xmlns="http://www.w3.org/2000/svg" width="11.866" height="9.711" viewBox="0 0 11.866 9.711"><defs><style>.a{fill:#484848;}</style></defs><path class="a" d="M4.427,9.712a10.181,10.181,0,0,1-1.573-.125A7.38,7.38,0,0,1,.7,8.8L0,8.42l.761-.25C1.593,7.9,2.1,7.726,2.726,7.46A2.614,2.614,0,0,1,1.382,5.9l-.177-.538.145.022A2.641,2.641,0,0,1,1.02,4.98,2.5,2.5,0,0,1,.6,3.492l.033-.469.281.109a2.626,2.626,0,0,1-.254-.713A2.714,2.714,0,0,1,.944.591L1.189.142l.327.393a6.023,6.023,0,0,0,3.9,2.2,2.334,2.334,0,0,1,.142-1.24A2.321,2.321,0,0,1,6.5.41a2.835,2.835,0,0,1,1.645-.4A2.628,2.628,0,0,1,9.764.672a5.422,5.422,0,0,0,.591-.2c.13-.049.277-.1.461-.168l.678-.234-.442,1.262.091-.006.724-.033-.428.585c-.025.033-.031.043-.039.056-.034.052-.077.117-.665.9a1.106,1.106,0,0,0-.207.72,6.813,6.813,0,0,1-.372,2.74,4.849,4.849,0,0,1-1.3,1.928A5.749,5.749,0,0,1,6.129,9.545,8.389,8.389,0,0,1,4.427,9.712Zm0,0" transform="translate(0 -0.001)"/></svg>