<svg xmlns="http://www.w3.org/2000/svg" width="12.372" height="12.345" viewBox="0 0 12.372 12.345"><defs><style>.a{fill:#fff;}</style></defs><path class="a" d="M7.61,99.73H5.127a.2.2,0,0,0-.2.2v7.979a.2.2,0,0,0,.2.2H7.61a.2.2,0,0,0,.2-.2V99.93A.2.2,0,0,0,7.61,99.73Z" transform="translate(-4.73 -95.763)"/><path class="a" d="M1.639.341A1.637,1.637,0,1,0,3.277,1.978,1.64,1.64,0,0,0,1.639.341Z" transform="translate(0 -0.341)"/><path class="a" d="M111.136,94.761a2.917,2.917,0,0,0-2.182.916v-.518a.2.2,0,0,0-.2-.2h-2.379a.2.2,0,0,0-.2.2v7.979a.2.2,0,0,0,.2.2h2.478a.2.2,0,0,0,.2-.2V99.19c0-1.33.361-1.849,1.289-1.849,1.01,0,1.09.831,1.09,1.917v3.879a.2.2,0,0,0,.2.2h2.479a.2.2,0,0,0,.2-.2V98.761C114.311,96.783,113.933,94.761,111.136,94.761Z" transform="translate(-101.939 -90.993)"/></svg>