<svg xmlns="http://www.w3.org/2000/svg" width="20.809" height="20.809" viewBox="0 0 20.809 20.809"><defs><style>.a{fill:#ef4024;stroke:#ef4024;stroke-width:0.4px;}</style></defs><g transform="translate(0.2 0.2)"><path class="a" d="M14.777,0H5.632A5.638,5.638,0,0,0,0,5.632v9.145a5.638,5.638,0,0,0,5.632,5.632h9.145a5.638,5.638,0,0,0,5.632-5.632V5.632A5.638,5.638,0,0,0,14.777,0ZM18.6,14.777A3.826,3.826,0,0,1,14.777,18.6H5.632a3.825,3.825,0,0,1-3.821-3.821V5.632A3.826,3.826,0,0,1,5.632,1.811h9.145A3.826,3.826,0,0,1,18.6,5.632v9.145Z"/><path class="a" d="M46.227,40.97a5.259,5.259,0,1,0,5.259,5.259A5.265,5.265,0,0,0,46.227,40.97Zm0,8.707a3.448,3.448,0,1,1,3.448-3.448A3.452,3.452,0,0,1,46.227,49.676Z" transform="translate(-36.022 -36.024)"/><path class="a" d="M120.249,28.251a1.327,1.327,0,1,0,.939.389A1.333,1.333,0,0,0,120.249,28.251Z" transform="translate(-104.565 -24.841)"/></g></svg>