<svg xmlns="http://www.w3.org/2000/svg" width="21.333" height="21.286" viewBox="0 0 21.333 21.286"><defs><style>.a{fill:#ef4024;}</style></defs><path class="a" d="M9.554,99.73H5.271a.344.344,0,0,0-.344.344v13.758a.344.344,0,0,0,.344.344H9.554a.344.344,0,0,0,.344-.344V100.074A.344.344,0,0,0,9.554,99.73Z" transform="translate(-4.588 -92.891)"/><path class="a" d="M2.826.341A2.823,2.823,0,1,0,5.65,3.164,2.828,2.828,0,0,0,2.826.341Z" transform="translate(0 -0.341)"/><path class="a" d="M114.728,94.761a5.03,5.03,0,0,0-3.763,1.58v-.894a.344.344,0,0,0-.344-.344h-4.1a.344.344,0,0,0-.344.344v13.758a.344.344,0,0,0,.344.344h4.273a.344.344,0,0,0,.344-.344V102.4c0-2.294.623-3.187,2.222-3.187,1.741,0,1.88,1.433,1.88,3.305v6.689a.344.344,0,0,0,.344.344h4.275a.344.344,0,0,0,.344-.344v-7.546C120.2,98.248,119.552,94.761,114.728,94.761Z" transform="translate(-98.869 -88.264)"/></svg>