<svg xmlns="http://www.w3.org/2000/svg" width="20.459" height="16.745" viewBox="0 0 20.459 16.745"><defs><style>.a{fill:#ef4024;}</style></defs><path class="a" d="M7.633,16.745a17.555,17.555,0,0,1-2.711-.215,12.725,12.725,0,0,1-3.709-1.35L0,14.517l1.312-.432c1.435-.472,2.307-.764,3.388-1.223a4.507,4.507,0,0,1-2.317-2.684l-.305-.927.25.038a4.553,4.553,0,0,1-.57-.7,4.316,4.316,0,0,1-.732-2.566l.057-.809.484.188a4.528,4.528,0,0,1-.439-1.23,4.68,4.68,0,0,1,.5-3.151L2.049.244l.564.678A10.385,10.385,0,0,0,9.341,4.71a4.024,4.024,0,0,1,.244-2.138A4,4,0,0,1,11.213.706,4.888,4.888,0,0,1,14.05.01a4.531,4.531,0,0,1,2.785,1.149,9.35,9.35,0,0,0,1.019-.34c.224-.084.477-.18.794-.289l1.169-.4L19.055,2.3c.05,0,.1-.008.156-.01l1.248-.057-.738,1.008c-.042.058-.053.074-.068.1-.059.09-.133.2-1.146,1.553a1.907,1.907,0,0,0-.357,1.242,11.747,11.747,0,0,1-.641,4.725,8.361,8.361,0,0,1-2.244,3.325,9.912,9.912,0,0,1-4.7,2.272A14.464,14.464,0,0,1,7.633,16.745Zm0,0" transform="translate(0 -0.001)"/></svg>